<svg width="64" height="64" viewBox="0 0 64 64" xmlns="http://www.w3.org/2000/svg">
  <!-- Pixel art avatar based on the provided image -->
  <!-- Background -->
  <rect width="64" height="64" fill="#f4d4a7"/>
  
  <!-- Character body (dark purple/black) -->
  <rect x="20" y="45" width="24" height="19" fill="#1a0d2e"/>
  
  <!-- Character head (black) -->
  <rect x="24" y="25" width="16" height="20" fill="#0f0f0f"/>
  
  <!-- Hood/cloak (purple gradient) -->
  <rect x="16" y="20" width="32" height="25" fill="#8b4a9c"/>
  <rect x="18" y="22" width="28" height="20" fill="#a855a8"/>
  <rect x="20" y="24" width="24" height="16" fill="#c084c9"/>
  
  <!-- Eyes (white dots) -->
  <rect x="26" y="30" width="2" height="2" fill="white"/>
  <rect x="36" y="30" width="2" height="2" fill="white"/>
  
  <!-- Staff -->
  <rect x="48" y="15" width="3" height="40" fill="#4a3728"/>
  
  <!-- Staff top ornament -->
  <rect x="46" y="12" width="7" height="8" fill="#6b9bd1"/>
  <rect x="47" y="13" width="5" height="6" fill="#87ceeb"/>
  <rect x="48" y="14" width="3" height="4" fill="#b0e0e6"/>
  
  <!-- Magic orb/crystal -->
  <rect x="12" y="35" width="8" height="8" fill="#40e0d0"/>
  <rect x="13" y="36" width="6" height="6" fill="#7fffd4"/>
  <rect x="14" y="37" width="4" height="4" fill="#afeeee"/>
  
  <!-- Additional purple details -->
  <rect x="22" y="40" width="4" height="4" fill="#9370db"/>
  <rect x="38" y="40" width="4" height="4" fill="#9370db"/>
  
  <!-- Ground shadow -->
  <rect x="18" y="60" width="28" height="4" fill="#6a4c93" opacity="0.6"/>
</svg>